<svg xmlns="http://www.w3.org/2000/svg" xmlns:xlink="http://www.w3.org/1999/xlink" viewBox="0,0,256,256" width="30px" height="30px" fill-rule="nonzero"><g fill="#00b1fd" fill-rule="nonzero" stroke="none" stroke-width="1" stroke-linecap="butt" stroke-linejoin="miter" stroke-miterlimit="10" stroke-dasharray="" stroke-dashoffset="0" font-family="none" font-weight="none" font-size="none" text-anchor="none" style="mix-blend-mode: normal"><path d="M0,256v-256h256v256z" id="bgRectangle"></path></g><g fill="#ffffff" fill-rule="nonzero" stroke="none" stroke-width="1" stroke-linecap="butt" stroke-linejoin="miter" stroke-miterlimit="10" stroke-dasharray="" stroke-dashoffset="0" font-family="none" font-weight="none" font-size="none" text-anchor="none" style="mix-blend-mode: normal"><g transform="scale(8.53333,8.53333)"><path d="M8.85547,2c-1.046,0 -1.91614,0.80661 -1.99414,1.84961l-0.27539,3.66602c2.093,0.243 5.02206,0.48438 8.41406,0.48438c3.392,0 6.32106,-0.24137 8.41406,-0.48437l-0.27539,-3.66602c-0.078,-1.043 -0.94814,-1.84961 -1.99414,-1.84961zM26.99805,8.99414c-0.06513,0.00214 -0.12989,0.01065 -0.19336,0.02539c0,0 -4.89993,0.98047 -11.80469,0.98047c-6.90476,0 -11.80469,-0.98047 -11.80469,-0.98047c-0.06488,-0.01368 -0.13096,-0.02088 -0.19727,-0.02148c-0.51692,-0.00295 -0.95091,0.38851 -1.00109,0.903c-0.05018,0.51448 0.29998,0.98243 0.80773,1.07942c0,0 1.21857,0.23444 3.19531,0.47656v1.79688c-0.20477,0.05523 -0.2232,0.00094 -0.45508,0.11914c-0.73113,0.37269 -1.54492,1.30649 -1.54492,2.62695c0,1.32046 0.81379,2.25426 1.54492,2.62695c0.23188,0.1182 0.25031,0.06391 0.45508,0.11914v1.25391c0,1.89856 1.05009,3.82482 2.65625,5.34961c1.1432,1.08529 2.60536,1.96001 4.25586,2.37891c0.39436,0.17329 0.82777,0.27148 1.28711,0.27148h1.60156c0.45934,0 0.89275,-0.09819 1.28711,-0.27148c1.6505,-0.41889 3.11266,-1.29362 4.25586,-2.37891c1.60616,-1.52479 2.65625,-3.45105 2.65625,-5.34961v-1.25391c0.20476,-0.05523 0.2232,-0.00094 0.45508,-0.11914c0.73113,-0.37269 1.54492,-1.30649 1.54492,-2.62695c0,-1.32046 -0.81379,-2.25426 -1.54492,-2.62695c-0.23188,-0.1182 -0.25031,-0.06391 -0.45508,-0.11914v-1.79687c1.97674,-0.24213 3.19531,-0.47656 3.19531,-0.47656c0.5205,-0.08562 0.88501,-0.56077 0.83288,-1.08567c-0.05213,-0.52491 -0.50298,-0.91908 -1.03015,-0.90065zM8,11.67578c1.9404,0.18031 4.32764,0.32422 7,0.32422c2.67236,0 5.0596,-0.14391 7,-0.32422v2.32422c-0.00005,0.54472 0.43585,0.98931 0.98047,1c0,0 0.29558,0.01919 0.56445,0.15625c0.26887,0.13706 0.45508,0.20321 0.45508,0.84375c0,0.64054 -0.18621,0.70669 -0.45508,0.84375c-0.26887,0.13706 -0.56445,0.15625 -0.56445,0.15625c-0.54462,0.01069 -0.98052,0.45528 -0.98047,1v2c0,1.10144 -0.74262,2.67518 -2.0332,3.90039c-0.29717,0.28211 -0.62286,0.54273 -0.9668,0.78125v-2.39648c0,-1.257 -1.02816,-2.28516 -2.28516,-2.28516h-3.42969c-1.256,0 -2.28516,1.02816 -2.28516,2.28516v2.39648c-0.34394,-0.23852 -0.66963,-0.49914 -0.9668,-0.78125c-1.29059,-1.22521 -2.0332,-2.79895 -2.0332,-3.90039v-2c0.00005,-0.54472 -0.43585,-0.98931 -0.98047,-1c0,0 -0.29558,-0.01919 -0.56445,-0.15625c-0.26887,-0.13706 -0.45508,-0.20321 -0.45508,-0.84375c0,-0.64054 0.18621,-0.70669 0.45508,-0.84375c0.26887,-0.13706 0.56445,-0.15625 0.56445,-0.15625c0.54462,-0.01069 0.98052,-0.45528 0.98047,-1zM8,14l0.81055,3.24219c0.111,0.445 0.5117,0.75781 0.9707,0.75781h3.4375c0.459,0 0.8597,-0.31281 0.9707,-0.75781l0.31055,-1.24219h1l0.31055,1.24219c0.111,0.445 0.5117,0.75781 0.9707,0.75781h3.4375c0.459,0 0.8597,-0.31281 0.9707,-0.75781l0.81055,-3.24219h-4h-3zM13.19922,22h3.60156c0.66,0 1.19922,0.53922 1.19922,1.19922v0.60156l-1.80078,1.79883v-1.19922c0,-0.66 -0.53922,-1.20117 -1.19922,-1.20117c-0.66,0 -1.19922,0.54117 -1.19922,1.20117v1.19922l-1.80078,-1.79883v-0.60156c0,-0.66 0.53922,-1.19922 1.19922,-1.19922z"></path></g></g></svg>